<svg xmlns="http://www.w3.org/2000/svg" width="240" height="229.1" viewBox="0 0 400 381.8"><defs><clipPath id="b"><path d="M0 0h400v382H0z"/></clipPath><clipPath id="a"><path d="M0 0h400v382H0z"/></clipPath></defs><g clip-path="url(#a)"><g clip-path="url(#b)"><path fill="#FEFEFE" d="m285 361-1 2h1v-2m-27 18v1zm-151 0v1l1 1v-1l-1-1M223 10h-2l1 1h3l1-1h-3m-98 364 2 1h1l-1-1v-1h-1l-1 1m173-32-1 1 1 1h1l3 1 3 1h1l-1-1-1-1-5-1-1-1m-56 39v-2l-1-1v-1l-1 1-2 1v1l1 1h3m-120 0 1-1c0-2-2-2-3-2l-2-1h-5l-2-1h-3l-1 1-3-1h-1v1l1 1h3l2-1 3 1 2 1h1l1-1h1v1l-1 1 1 1 1-1h3l1 1m33-2h-1l-3-1v-1c-1-2-1-2-3-2h-1l-2 1a12 12 0 0 1-2 2c-1 1-2 0-2-1l-2-2h-1c0 1 0 3 2 3l1 1c1 1 1 2 2 0l2-2h4l1 1-2 1-2 1h-1l1 1h4l5-2m166-1-1-1v-1l1-1 2 1 1 1-1 1-1 2 2 1 1-2 1-1h1l1 2v1h2l1-1h-1v-2h3l-1-1-1-1-1-2h2v-1h1v-1l-1-1h-1l1-1h1l-1-2v-2c1 0 2-1 1-2l1-4-1-3-4-3-8-3h-1l-5-2-2-2h-2l-1-1-2 1v1l-5 16-2 5-1 3a132 132 0 0 0-2 9h1l1-2v-2l4-14a378 378 0 0 1 5-14l1-1v2l-3 8-1 4-2 7-2 10 1 2h5l1-1v-1c-1-1 0-1 1-2l3 1 3 3h1a42 42 0 0 0 2 0l1-1v-2h1m-149-1 2 1v-1l1-1h1v2l-1 1 1 1 1-1 1-1v1l1 2h8v-3h2l1 2 1 1 1-2h1v1h2v-4l-1-2-1 2v1l-1-1-1-1v-2l2-1 2-1v-1h-2l-1 1v-2l2-1 1-1 1-1h1v15l2-1 1-1 2 1 1 1v-2h6c0 2 2 2 3 2l2-2 2-2 2-2c1 0 2-1 1-2l1-1 3 2c0 2-1 3-3 2l-1 1 1 1v3h15l1-2c1 0 0 0 0 0l-1-2 2-1c1 1 2 1 2-1h3l2 1 1 1 1 2v1h3l4 1 1-2-1-1v-4c1-1 4 0 4 1l1 3 1 1h1l3 1h1l2-1h2l-1-1h-2v-1h5l2 1 2 2h1v-2h1v3h2v-2l1-3 1-5 2-8 2-6 2-12 2-1v4l-3 9v1l1-1 3-10 2-4c0-2 1-2 2-1l2 1v-1l-1-1a123 123 0 0 0-7-1c-1-1-1 0-1 1l-3 1-7-3-5-1-2-1-3-3-8-7-4-4-4-3-9-7-1-2 1-5v-16l2-13 1-2 2-6 1-3 3-12 2-3 5-11 9-16 6-11 7-12 5-12 2-1 2 4 6 3h1c2 1 5-1 6-2l3-7 4-8 5-12 4-16v-2l3-15v-13l-1-2-2-5-4-4-5 1-4 2a555 555 0 0 1-4 7l-1 1-1-1 2-11v-4l-1-10-1-10-1-6v-2a13 13 0 0 0-1-2l-1-2c0-2-1-4-3-5a2 2 0 0 1 0-1 856 856 0 0 1-4-6v-1l-2-3-1-3v-2l1-1h-1l-2-1-2-3-5-4-7-6-7-5-9-5h-1l-3-1-2-1-2-2-3-2c-2-2-3-3-5-3h-11l-3 1-10-3h-8l-1-1 1-1h1l8-1h5l1-2h-2l-10 1-6 1-13 2h-1l-2 1h-1l-5 1-3 1-7 2-11 1-13 3-10 5-7 4c-6 4-10 10-14 15-1 2-2 4-5 3l-1 1 1 1h1l1 1-3 6c-1 2-3 5-3 8l-1 1-1 1-2 2-1 1-1 2-2 2-1 2-1 2v3l2 2 2 2 1 2-2 5-2 6v5l-1 1-1-1-2-5c-2-4-5-5-9-4l-2 1-3 8-2 9-1 5v11l1 10 1 4 1 3 1 5 3 11c1 4 2 8 6 11 2 2 4 2 6 0l1-2 2-6 2-4 1-1 1 1 1 2 1 1 3 11 1 5 3 9c0 3 2 5 3 8l1 3 3 9 1 3 8 16 1 4 1 3 1 5 3 9 6 13 3 13v6l2 16v15l-1 1-8 5-1 2-10 10-2 1a181 181 0 0 1-12 3l-6 1h-2l-5 1h-3c-3-2-7-2-11-2h-1v1l2 1 4-1c2 1 2 2 2 3l-1 5v19l1 1 1-1v-1l-1-7 1-16 1-2v8l-1 1 1 14v6l1 12v1l-1-1v-3l-1-6v-2h-1v1a4477 4477 0 0 0 1 11c0 1 0 2 1 1a3 3 0 0 1 2 1l2-1 1-1 1 2h1v-1l-1-1v-7h2v1h3l1-1h1c1 1 0 1-1 2 0 0 0 1 0 0h2l3-1 3 1c1 1 2 2 4 1h3v-2l1 1v1l3 2h1c1 1 3 2 4 1-1-2-1-2-3-1h-1l-2-3v-1h1l1-1 1-1 4 1h1v2c-1 1 0 1 1 2a4 4 0 0 1 2 1l1 1h-4l4 3v-1l1-2 1-1-1-2v-1l-1 1h-1l-1-1v-2h4l1 1h4l2-1 1 2-2 1v1h1l2-2 2-1c2-1 4 0 5 2l1 1h2l-1-1-2-1v-2h1l1 1 2 1 1 1 1 1-2 1v1c0 1 2 2 3 1l2 1 2 1h5l1-1-1-2-2 1h-1l-1-1 1-1h1c0-1 1-2 2-1v-1l2-2h1l1-1 1 2v1l-1 2-3-1 1 2 1 2 3 1 1-1-1-1c-2 0-2 0-2-2m228 5H0V0h400z"/><path fill="#2B2B2A" d="m203 367-1-1v1h1m35 7h-2l1 1 1-1m-39-9v1h1l-1-1m-17-19 1-1-1-1-1 1 1 1m-53-5-1-1v2l1-1m156 4-1-1h-1l1 1h1m-117-8h-1l2 2v-1l-1-1m-13 13-1-1v1l1 1v-1m-55-3 1-1-1-1v2m39-12 2 1v-1h-2m124 10-1 2h1l1-1-1-1m-75 31 1 1h1a2 2 0 0 0-1-1h-1m92-19 1 1 1-1-1-1-1 1m10-15-2-1-1 1 1 1 2-1m-52 29-1-1-1 1 1 1 1-1M99 355l-1-2-1 1 1 2 1-1m4-275 1-1-1-1h-1l1 2m137 236-1-1-1 1v1l2-1m-122 24-1-2-1 1 1 1h1m91 11v-1l-2 2h1l1-1m-27 14v1l2-1-1-1-1 1m-72-8 2-2-1-1-2 2 1 1m130 10c-2 0-2 1-2 2v1l2-2v-1m19-17-2 1v1h2l1-1-1-1M95 373l1 2 1-1-1-2-1 1m100-9 1-1-1-2-1 1c-1 1 0 1 1 2m49-46-2-2v1l1 2h1v-1M98 365h4v-1h-1l-3 1m43-23 1-1-1-1-1 1 1 1m138 20h1l1-1-1-1-1 2m-159-17h2v-1l-2-1-1 1 1 1m40 32-2 1 1 1 1-1v-1m104-40v1l2-1c1-1 0-1-1-1l-1 1m-19-17 1 1 1-1-1-1-1 1m-123 28-1-1-1 1 1 1 1-1m142 2-2-2-1 1 2 2 1-1m10-6 1-1-2-2-1 1 2 2m-29 16 1-2-1-1-1 2 1 1m-129 11-2 1v2l2-1 1-1-1-1m147-30h1l1-1v-1h-1l-1 2m-132-10-1-3-1 1 1 1c0 1 0 2 1 1v-1m17 11-1 1 2 2 1-2-2-1m-39-5-2 1v1h2l1-1-1-1m79 31 2-1-2-1s-2 0-1 1l1 1m-48-45 2-1c0-2-1-1-2-1l-1 1 1 1m-22 21-2-2-1 1 2 2 1-1m160 21-1-2-1 1 1 2 1-1m-77-2-2-2-1 1 2 2 1-1m-50 7 2 2 1-1-2-2-1 1m107-6v1l1 1h2l-1-2h-2m1-19 2-2v-1l-1 1-1 1h-1l1 1m-117-26 1 2 2-1-2-2-1 1m117 40-2 2 2 1 1-1-1-2M99 338l-2 1 1 2c1 1 1 0 2-1v-1l-1-1m20-1 2-1-1-1-2 1 1 1m84 32-1 1v1l1 1h1c1-1 0-3-1-3m-50-29-2-2-1 2 2 1 1-1m90 31h-1l-1 1v1h4l-1-2h-1m-147-4v-2l-2 1v3h2v-2m179 1h1l1 2 1-2-1-2h-1l-1 2m-86-5 2-2-1-1-2 2 1 1m43-32-1-1-2 2v2h2l1-3m18 8 1-1v-1h-3v2h2m-43 36-1-1-1 1-1 1v1l1 1 2-3m66-6-1 1 1 2 2-2-2-1m-127-14-2 1v1l-1 1h3l1-2-1-1m-8-13-1 2 2 1 1-1-2-2m140 18-2-2h-2l1 2 1 1h1l1-1m-32-38 2 2 2-2-1-1-3 1m26 35 1-1-1-1-2-1-1 1c0 1 1 2 3 2M96 343v2l2 1 1-2-1-1-2-1v1m58-4h1l1-1-1-1v-1l-2-1v2l1 2m-60 21v2h1l1-2a11 11 0 0 0-1-2h-1v2m149-33-1-1-1 1-2 1 1 1 1 1 2-3m20 49-1-1a19 19 0 0 0-2 0h-1v1l1 1 2 1 1-2m11-30-1 1v1l2 2h1l1-1v-1h-1l-1-1-1-1m-181 7 1 2h1v-4h-1l-1 1v1m165-20 1-1 1-2h-2l-2 1v1l1 1h1M101 81l-1-2v-2l-1 1-1 2c-1 1 0 2 1 2l2-1m32 247 2-1 1-1-2-1h-1l-1 2 1 1m5-3h1v-2l-1-1c-1-1-2 0-3 1l2 2h1m113 48-1-1-2-1h-2l1 1 1 2 2 1 1-2m2-49-1-1-1 1-1 1-1 1 1 1h2l1-3m-128 27h-2v1l1 1h5v-1l-1-1h-3m132-2 1-1 1-1-1-1-1-1-1-1h-1v3l2 2m-130 1 3-1 1-1-1-1-1 1h-1l-1-1h-2c-1 1 0 3 2 3m72 27 1 1h1v-3l-1-4v-2h-1v8m-13-1h-1v-2l-1-1-2 2v3h2l2-2m-35-25-3 2-1 2h2l3-2v-1l-1-1m-2 9 2-1 1-1 3-2-1-2h-1l-2 2-2 1-1 2 1 1m95-4-1-1h-1v1l-2 2-1 2h3l2-4m7 12-1-1a17 17 0 0 1-2-1l-1 1v1l1 2h2l1-2m-1 11 2-1-2-1-2-1a8 8 0 0 0-1-1l-1-1-1 1 1 2 1 1 3 1m-18 0v-1l3-2v-1c-2-1-2-2-4 0h-1v2l2 2m-19-34 1-1 2-1v-2h-1l-1 1-1 1-4 2v2l1-1 3-1m44-17-1-2-1-1-1 1-1 2c-1 1 0 2 1 3 1 0 3-1 3-3m-32 5v-1h-2v2l-4 3-1 1v1h1l4-2 2-3v-1m19 0 1-1 2-3h1v-2h-1l-1 1-1 1-3 1v2l2 1m-117 10-1-1-1-1c-1-2-2-2-4-1l-1 1 2 1c1 0 2 0 3 2l1 1 1-2m98 21 1 1 1 1v-1l2-1 2-1 1-1-2-2-1 1-3 2-1 1m-47 4-2 1-2 2h1l2 1h2v1l2 1v-2l1-1v-2l-1 1-1 1-2-1v-2m9 2 1 1v1l-1 1v1l2 1v-2a6 6 0 0 0 0-1v-4h-1l-3 1-1 2h1l2-1m-32-5h-1l1 2h2l1-3h4l-1-2c-2-1-4 0-5 2l-1 1m75-38h-1l-3 3 1 1h1l2-3h3l1-3-1-1h-2v3h-1m47 30 2-1h1l-1-1-1-2-1-1-2-1-2 1 1 2 1 2 2 1m-30-31-1-1-1-1-1-2v-1l-1-1h-1v2l-1 1-3 2v2l2-1v-1l3-1 1 2 1 1 2-1m-4 41h1l1-1 1-1v-2h-2l-1 1-1 1-1 2 1 1c0 1 0 2 2 2h2l-1-2-2-1m-100-13 3-1v-1l2-2 1-1-1-2h-1l-4 3v1l-1 1-1 1 2 1m10 5-1 1-1 1-1 2 2 2h1c0-2 1-2 2-3l2-1 1-1-2-2-1 1h-2m11 16 2-1c-1-1-1-1 1-1l1-1 1-1 1-1c0-1-1-2-2-1l-2 2h-2l-1 1-1 2h-1l1 1h2m77-56c0-1-1-2-3-1l-4 3 1 2v1h2l2-2 1-2 1-1m-124 28h-3l-1 2 1 1h1c2 0 3 1 4 3l1 1 2-1-1-2-1-1-1-1-1-1-1-1M91 111c-2 0-3 1-2 3l1 2 2 2h1l1-1-1-5-2-1m-4 0h1l2-2 1-2-2-3h-2a17 17 0 0 0-2 3c-1 1 1 4 2 4m71 258-1 1 2 2h2l2-2h1l2-1v-2l-2-2-2 1h-1l-1 3h-2m118 5-1-1-1 1h-2l-1-1-6-1c-1 0-2 1-1 2 0 2 1 2 2 2l3-1h2l1 1 2 1 2-3m29-248c0-1 0-2-2-2-1 0-3 1-3 3l-1 4v1h2c0-2 2-2 3-3l1-3M114 338h1v-1l-1-1h-1l-1 1v1l1 1h-1l-1 1-1 1v2l-1 2v1h1l1-1 1-1 2 1h1v-1h-1l-1-2 1-1 1-1-1-2m-8 6-4-2h-1l-1 1 1 1 3 2 2 1 2-2 1-3v-1h-1l-5-2h-1l-1 1 2 1 3 3m82 10-1 1v1l1 1 1-1v-2c2 0 2-2 1-3l-1-2-1-1-5 1v2l2 2 1-1h1l1 1v1m93-5v1l-1-1 1-2v-1l-2-4h-2l-1 2-1 1v1h1l1-1h1v2l1 4 1 2 1 2 2-1v-1l-1-1-1-2h2l1-1-1-2-2 1v1m-26 20-1 1-1 1v1h4l3 1h2l1-1-2-1h-3l-2-1v-2l1-1 1 1 1 1h2v-2l-4-2h-4l-1 1 1 1 2 2m-124-32h3l1-2v-2l-1 1-1 1-1-2h-1l-1 1-1-1-1-2h-1l-1 1v1l-1 2 1 1c2 1 1-1 1-2 1 0 2 1 1 2l-1 2h-1v1h5v-2m40 16-4 2-1 1-1 1-1 1-1 1v1l2-1h1c1 1 2 1 2-1h1l2-1v-1l1-1h1l2-1 1-1c1 0 2-1 1-2l-1-2h-2l-1 2c-2 0-2 1-2 2m96-4-1 1 1 1v3h2l2-1v-2c1-1 1-2-1-2h-1l2-1v-4l-1-1v-2h-3c-1 2 1 2 2 3h-4l1 1v4h1m-152 21 1-1 1-1v-2l-1-1h-3l-3 1h-2a22 22 0 0 0-4-2c-1 0-2 1-1 2l-1 1-1 1h-2l-1-1v2l2 1 1 1 1-1 1-1 2 1 2 1 1-1-1-1-1-1v-1l1-1 1 1c1 2 2 2 3 1l1-1 2 1-1 1v1h2m19-25v1l1 2c2 0 2 0 1 1v2l2 1h1v-1l1-1 1-1c1 1 1 0 2-1h1l1-1v-3h-2l-2 1v1l-2 1-1 1-1-1-2-4 1-1 1-1 1-1v-1l-1-1h-1l-1 1-3 2-1 1-1 1v1l1 1 2 1 1-1m39 15v1h4l1 1-1 1-3 1v1l-3 1 1 3h1l1-1 1-2 1-1h2l1 1c0 2 0 2 2 2l1-1-1-1h-2v-2l1-1h1l1-1 1-1 1-1c1 1 2 0 2-1v-2h-4v-2l-1-3-2 1v1l1 2-2-1-1-1-1 1v1l2 3 2-1h1v1l-2 1h-2l-1-1-1-1v-1h-1l-1 1h-1l-2 1v3l-1-1h-1c-1 0-2 3-1 4h1l1-1v-1l1 1a5 5 0 0 0 1 0l2-1v-3m-26 7 2 1 1-1v-1c-2-1-3-3-5-3l-1-1-1-1c-1-1-2-1-2-3h-2v1h-2v-2c1-1 1-3-1-3l-1-1a13 13 0 0 0-2-3h-1v4l2 1h1l1 2v2l-1 1 1 2v3h2v-1h1v1c-1 1-2 1-1 2v1l-3-1-3-1 1-1 1-1v-4c-1-2-3-3-3-5h-3l1 2 1 1v2h-2v1l1 1h2l1 1-1 1-1 2v4h2l3-1 1 1 1 1 2-1 3-2 1 1h-2v2h6c0-1 0 0 0 0h2v-1l-1-1-1-2m118-15a97 97 0 0 1-1 0v1l-1 1h-6l-3 1-1 1-2 1-2 2-1 1 1 1 1-1h1l1-1h1a6 6 0 0 1-1 2l-1 1h-1l-2-1h-2l1 1 2 2h5l2-1-1-1v-5l1-1 1 1h2c1-2 2-2 4 0h-1l-1 1 2 1h1l1 1h1l-1 1-1-1-2 1-1 3 2 3v3l2 1h5v-6l2 1v1h1l1-1-1-1-1-1-2-2-1-1v-1h1l2 2h2c1-1 0-3-1-3l-2-1-4-1s-1 0 0 0l-1-2c0-1-2-1-1-3m-141 8 2-1 1-2-1-1h-3l-1 1-3-2h-3l1-1v-2l-2-1-2 1v4h-1l-1 2-2-1-1-1v-2l2-1 1-1v-2c1-2 1-2-1-3l-2 1 1 1v1l1 1-1 1-1-1-1-2h-2l-2 1-1 1 1 1h4v1h-5l-1 1 1 2v1l-2 2h-3v1l1 2h2v-2h2c2 1 3 0 4-1l1-1a8 8 0 0 1 2 2c1 1 2 2 2 0h2l3 1 1 1h-8l-1-1-2-1-3 1-1 1 1 2 2-1 2 1 1 1h3c1-2 1-2 3-1h4l1 1 1 1 1-1v-2l-1-1-1-1-1-1-3-1-1-1h1l1-1h2l1 1c1 2 1 2 2 1l1-1v2l1 2 1 1v1a4 4 0 0 1-1 1l-2 2h-2l-1 1 2 1 1-1h1l1 1v1l2-1 1-1h2l1-1c0-1-1-2-2-1l-2-1h1l1-1v-2l-1-2h-2m16-35c-1 2 1 3 1 4l-1-1-2-1-1 1-1 1v2l3 3 1-1 1-1 1 1 1 2 1 1 1 1h-2l-1 1 1 1a19 19 0 0 0 3 2l1-1c-1-1 2-1 2-3 1 1 2 0 2-1l1-1 1-1-1-1-2-2a41 41 0 0 0-4-1h-1v3h3c1-1 2 0 2 1h-1c-1-1-1-1-2 1-1 1-2 0-2-1l-2-2-1-1 1-1h1l2-3v-1l2 2 1 2 4 2 1 1 2 2c0 1 0 2 2 1h1l1 1-1 1-2 1-2 2-2 1-1 1a3 3 0 0 1 0 1l-3 1v1l2 1h1l1-1 1-1 2-1v-1l1 1a7 7 0 0 1 0 2h-1l-1 2 1 1c2 0 2 0 2-2l1-1c2 0 2 1 1 2l-1 1-1 1-1 1-1 1 1 2h1l1-1v-1l2-1 1-1h1l1 1-1 1c-2 1-2 2-2 3l-1 1-1 1 1 1h1l1-1c1 0 2-1 1-2v-1h3v-2h3v-2h1c1 1 1 1 2-1h1c1 0 2-1 1-2v-2l-2 1-1 1-2 1v1l-2-1v-2c2 1 2-1 3-1v-2h-3l-1 1-1 1c-1-1-2 0-2 1l-1 1-1-1-1-1-1-1-1-2 1-1 1 1c0 2 2 3 4 2l3-3v-1l-3-2a139 139 0 0 1-2-4l-2-1-1 1a2 2 0 0 1-1 0v-1h1l1-1-1-1-1 1h-2l-4-4-1-1h-2l-1-2v-1a21 21 0 0 0-2-3h-2v1l1 2v2l-1-1-1-1h-2l1 1 1 1v1l-3-2m74 25v-1l1-2-1-1h-1c-2 2-2 3-1 5l-1 2-2 1-1 2h-1v-3h-1l-1 2-1 1a6 6 0 0 1-2 0v-2l-1-1v-4h2v3h1l2-2 1-1v-1l-2-1h-2l-3 1c-1 0-2 1-2 3l1 2 1 2c-1 1-1 1 1 2l1 1a5 5 0 0 1 0 1l1 2v1l1 1 1 4 2 1 1-1 2-1 2-1v-1l2-1-1 2v1c0 1-1 2-2 1l-2 1-1 1-1 1 1 4h1c1 1 2 2 1 4h1l1 1v-1c0-2 1-2 2-3l1-1v-4h-1l-2 1h-2l-1-1h1a4 4 0 0 1 1 0c2 0 2-1 3-2h1l1 1 1 1v2l-1 1 1 1 2-3 2-1h1l2-2 1-1-1-1h-1l1-3 2-1 2-2 1-1h4l1-2v-2l-1 1a19 19 0 0 1-2 2h-1l-1-2h1l2-1 1-2v-2l3-2h1l-2 2-1 2c0 1 1 2 2 1v1a4 4 0 0 1 0 1l-1 4v2c-2 1-2 1-1 2v2l-2 3-1 1v-1l1-4h-2v1l-1 1v3l-2-1h-1a18 18 0 0 0-2 2v1l1 1-2 3v1h2l2-1 2-3c-1-1 0-2 1-1l2-1 3-3 2-1 3-3v-2h-1l-1-1-1-1 1-3 1-1 2-2 1-2-3-3c-1 0-2-1-1-2h1l2 1 1-2v-3l-1-2c-1 0-2-1-2-3l1-1 1 1 1 2 2 2v1l2 3 1 1-1 1-1-1-1-2-1 2h-1l-1 2v1a4 4 0 0 0 2 1l1-1v-1h2l-1 2v5l1 1 2 1v-1l2-2v-1l2-1v-2l-1-1 1-1 1 1h1v-1s0-1 0 0c-2 0-2-1-2-2l-1-3-1-2h4l1-1h2l2-3-1-1 1-1c2 1 3 0 4-2l-1-2-1 1-2 1-1 1h-2l-2-3h-4v2l1 1 1-1h1v4l1 1-1 1-2 1h-2l-1-1-1-1-1-1-1-1 1-1c2 0 2-1 2-2l1-2 2-1v-1l-2-1-2 2v1l-2 3-3 1c1-2 0-3-1-4l-3-1v-1l-1-1h-2v1l-2 3-2 2-1 1h3l1-3 1-1 1 1v2l-1 2-1 1-2 1h-2v-1l-1-1-1-2-1-1-1 2v2a13 13 0 0 1-1 1l-1 2a56 56 0 0 0 0-1v-1l-1-1-1 1-1 2v1h1l1-1c1 1 0 2-1 2l-1 1 1 1 1 1-1 1h-1l-1-1v-2l-1-2h-2a13 13 0 0 0-1 2v3l1 2 1 1 1 1 1-1h2l-2 1v4l-2 1h-1l1-2-1-2-1-1v-1l-1-1-1 1m-22 2 1 1 2 2h1v-1l-1-2v-3l1-1 6-3a51 51 0 0 0 5-2l5-2 3-2 2-2 10-11 2-2c3-2 6-5 7-9l2-4 1-2v-16l1-1v-2l1-13v-1l1-2 1-3v-1h-1a6 6 0 0 0-1 2l-4 3-4 3a26 26 0 0 1-4 2l-5 2-11 7-6 4-3 1-3 1h-8a89 89 0 0 1-14-2l-6-3-6-3-9-7-3-1-9-5-2-4v-1h-1l-1 1v1l2 8v9l1 20v7l1 2 3 3 9 9 6 3 8 5h1l9 6 2 1 8 4 1 3-1 1M84 144l-1-2-1-2-1-1-1 1v2c2 2 2 4 2 7l1 3v4l1 3v2l1 2v1c1 4 3 7 6 9h2l2-3 3-7 2-4 1-2v-1h1l2 5 1 2 3 7 3 10 1 5 4 13 1 2v2l2 5 1 3 5 10 4 10 3 9 5 15 3 5 1 1 1 3 6 9c1 3 3 4 6 5l3 2 10 6 5 3 7 3c2 1 4 2 7 1l1 1 6 1h2l2-1h2l2 1c2-1 5-1 6-3h1l9-6c2-1 4-4 6-4a115 115 0 0 0 5-2l4-2 4-3c3-2 5-4 6-7 0-1 0-2 2-3l2-3c1-3 1-5 3-7l1-3v-2l4-7 6-12a31 31 0 0 0 2-2l6-11 9-16 4-7 1-5 2-4 1-1 3 3 1 1 2 4c2 2 5 3 7 0l2-2a90 90 0 0 0 5-9l4-11 4-10v-1l1-6 1-4c0-2 2-4 1-6l1-1v-3l1-4v-2l-2-14a3 3 0 0 0 0-1l-1-3c-1-2-4-4-5-3l-6 3-3 5v1h1l3 2 2 3-3 5-4 3v1l1 4v1l1 1a14 14 0 0 0 1-1c3-3 5-3 8-1l2 3-1 1-1-1-1-2-1-1c-2 0-4 0-5 2l-2 1-1 1c0 2 0 5 2 7v7l-1 3-1 2-2-1h-1v1a56 56 0 0 0 0 4v3l2 5v3l-1 1-1-1-1-5v-2l-1-6v-3l-1-5-3-1-2 3-2 3h-1v-3l2-3 1-4 1-1 1 1 3 1v3h1v-1h4v-2a8 8 0 0 1 0-2l-2-2v-2l1-2-1-5v-2l-1-2v-3l1-5-1-2-1-3 1-6a145 145 0 0 0 0-9v-3l1-6-1-10-2-7-2-5-2-8c-2-4-5-6-6-10l-2-5-5-8-2-1-2-1-4-5-4-2-4-3-6-3-2-1h-3l-10-7-2-1h-1l-3-2h-6c-1 0-2 0-2 2h-1c-1-2-1-2-3-2h-2c-2 0-5 0-7-2l-3-1h-9a6 6 0 0 0-2 0h-3l-4 1-5 2h-3l-7 1h-4l-7 1h-5l-2 1-5 1-4 1c-3 0-7 2-10 4l-3 1-3 1-8 6-7 7-3 5-5 9-2 6-4 11-2 7-1 1h-1v1l1 1 1 1-1 3-3 12-2 11-1 1-2-1v-2l-2-5-4-5c-2-2-5-2-6 2l-1 5v1l-1 2-1 3v1a140 140 0 0 0-2 7l-1 4v1l1 8v1l2 4h1v-3l-1-4c1 0 0 0 0 0v-7l1-9v-1l2-5c0-2 1-5 3-7h2c1 1 3 2 3 5l1 1 1 1 1 3 1 5-1 5v2l-1 3-2 4-1 2v2l-2 5-1 5v1l-1-1v-4l1-3 2-6 2-4-1-3h-4l-2 1v1h-1v-1l1-2c2-2 4-2 7 0l2-1c0-1 0-2-2-3l-1-1h-4l1-2v-1l-1-4-1-1-1 1a37 37 0 0 1-1 2l-2 10v4l2 10v1l1 4v1m12 204v2h1v-1l-1-1v-1l-2-1v1l2 1m76 29 1-2v-1l-1-2-1 1h-1l-2 2v1c-1-1-2 0-2 1h-1l-1 1 1 1h1l2-1 1 2-1 1h-5l-2-1-2-1c-1 1-3 0-3-1v-1l2-1-1-1-1-1-2-1-1-1h-1v2l2 1 1 1h-2l-1-1c-1-2-3-3-5-2l-2 1-2 2h-1v-1l2-1-1-2-2 1h-4l-1-1h-4v2l1 1h1l1-1v1l1 2-1 1-1 2v1l-4-3h4l-1-1a4 4 0 0 0-2-1c-1-1-2-1-1-2v-2h-1l-4-1-1 1-1 1h-1v1l2 3h1c2-1 2-1 3 1-1 1-3 0-4-1h-1l-3-2v-1l-1-1v2h-3c-2 1-3 0-4-1l-3-1-3 1h-2c0 1 0 0 0 0 1-1 2-1 1-2h-1l-1 1h-3v-1h-2v7l1 1v1h-1l-1-2-1 1-2 1a3 3 0 0 0-2-1c-1 1-1 0-1-1l-1-11v-1h1v2l1 6v3l1 1v-1l-1-12v-6l-1-14 1-1v-8l-1 2-1 16 1 7v1l-1 1-1-1v-19l1-5c0-1 0-2-2-3l-4 1-2-1v-1h1c4 0 8 0 11 2h3l5-1h2l6-1 5-1a182 182 0 0 0 9-3l10-10 1-2 8-5 1-1v-15l-2-16v-6l-3-13-6-13-3-9-1-5-1-3-1-4-8-16-1-3-3-9-1-3c-1-3-3-5-3-8l-3-9-1-5a761 761 0 0 0-3-11l-1-1-1-2-1-1-1 1-2 4-2 6-1 2c-2 2-4 2-6 0-4-3-5-7-6-11l-3-11-1-5-1-3-1-4-1-10v-11l1-5 2-9 3-8 2-1c4-1 7 0 9 4l2 5 1 1 1-1v-5l2-6 2-5-1-2-2-2-2-2v-3l1-2 1-2 2-2 1-2 1-1 2-2 1-1 1-1c0-3 2-6 3-8l3-6-1-1h-1l-1-1 1-1c3 1 4-1 5-3 4-5 8-11 14-15l7-4 10-5 13-3 11-1 7-2 3-1 5-1h1l2-1h1l13-2 6-1 10-1h2l-1 2h-5l-8 1h-1l-1 1 1 1h8a139 139 0 0 0 13 2h11c2 0 3 1 5 3l3 2 2 2 2 1 3 1h1l9 5 7 5 7 6 5 4 2 3 2 1h1l-1 1v2l1 3 2 3v1a835 835 0 0 0 4 6v1c2 1 3 3 3 5l1 2 1 2v2l1 6 1 10 1 10v4l-2 11 1 1 1-1a541 541 0 0 0 4-7l4-2 5-1 4 4 2 5 1 2v13l-3 15v2l-4 16-5 12-4 8-3 7c-1 1-4 3-6 2h-1l-6-3-2-4-2 1-5 12-7 12-6 11-9 16-5 11-2 3-3 12-1 3-2 6-1 2-2 13v16l-1 5 1 2 9 7 4 3 4 4 8 7 3 3 2 1 5 1 7 3 3-1c0-1 0-2 1-1a124 124 0 0 1 8 2v1l-2-1c-1-1-2-1-2 1l-2 4-3 10-1 1v-1l3-9v-2l-1-2-1 1-2 12-2 6-2 8-1 5-1 3v2h-2v-3h-1v2h-1l-2-2-2-1h-5v1h2l1 1h-2l-2 1h-1l-3-1h-1l-1-1-1-3c0-1-3-2-4-1v4l1 1-1 2-4-1h-3v-1l-1-2-1-1-2-1h-3c0 2-1 2-2 1l-2 1 1 2s1 0 0 0l-1 2h-15v-3l-1-1 1-1c2 1 3 0 3-2l-3-2-1 1c1 1 0 2-1 2l-2 2-2 2-2 2c-1 0-3 0-3-2h-6v2l-1-1-2-1-1 1-2 1v-15h-1l-1 1-1 1-2 1v2l1-1h2v1l-2 1-2 1v2l1 1 1 1v-1l1-2 1 2v4h-2v-1h-1l-1 2-1-1-1-2h-2v3h-8l-1-2v-1l-1 1-1 1-1-1 1-1v-2h-1l-1 1v1l-2-1zm153-13-1-1-1 1 1 1 1-1m1-4-1 1 1 1 1-1-1-1m-20 14 1-1-1-1-1 1 1 1m20-16 1-1-2-1v1c-1 1 0 1 1 1m5 5-2-2v1l1 1h1m-17-1-1 1 1 1 2-1-2-1m-7 16-2-1-1 1 2 1 1-1m0-10-1 1 1 1 2-1-2-1m22 5 1-1-3-2v1c0 1 0 2 2 2m-2 3 2-1-2-1-1 1 1 1m5-15v-2l-2-1-1 1c1 1 1 2 3 2m-11-7-1 1 1 2 2-1-2-2m0 6 1-1-2-1-1 1 2 1m0 12-1 1 1 1 2 1h1v-1l-3-2m-2-10-1 2 1 1 2-2-2-1m-9 2-1-1-2 2 2 1 1-2m0-2 2-2-2-2-1 2 1 2m10 6-3-2-1 1 2 2h1l1-1m2 1-1 1 1 1 2 1h1v-1c-1-2-2-2-3-2m9-2-2-2h-1v2l1 2 2-2m-20-9 2-1 1-1v-1h-4v2l1 1m5 21 2-1-1-1-2-2h-1v1l1 3h1m6-14-1 1 1 1 3 2 1-1v-1l-4-2m-5-11-1-2-2-1h-1l-2 1 1 2 1-1h1l1 2h1l1-1m-6 21 2-1v-1l-1-1h-4v2l-1 2 1 1 1-2 1-1 1 1m2-8 2-1v-1h-2l-1 2v1l-1 1c-1 1 0 2 1 2h3l1 3h1l1-1-2-4c-2 0-2-1-3-2m8 11h-1v2a1 1 0 0 1-1 1 42 42 0 0 1-3 0l-3-3-3-1c-1 1-2 1-1 2v1l-1 1h-5l-1-2 2-10 2-7 2-4 2-8v-2l-1 1a378 378 0 0 0-5 14l-4 14v2l-1 2h-1v-2l2-7 1-3 2-5 5-16v-1l2-1 1 1h2l2 2 5 2h1l8 3 4 3 1 3-1 4c1 1 0 2-1 2v2l1 2h-1l-1 1h1l1 1v1h-1v1h-2l1 2 1 1 1 1h-3v2h1l-1 1h-2v-1l-1-2a3 3 0 0 0-1 0l-1 1-1 2-2-1 1-2 1-1-1-1-2-1-1 1v1l1 1"/><path fill="#2B2B2A" d="m155 379-5 2h-4l-1-1h1l2-1 2-1-1-1h-4l-2 2c-1 2-1 1-2 0l-1-1c-2 0-2-2-2-3h1l2 2c0 1 1 2 2 1l2-2 2-1h1c2 0 2 0 3 2v1l3 1h1m-33 2-1-1h-3l-1 1-1-1 1-1v-1h-1l-1 1h-1l-2-1-3-1-2 1h-3l-1-1v-1h1l3 1 1-1h3l2 1h5l2 1c1 0 3 0 3 2l-1 1m50-4c0 2 0 2 2 2l1 1-1 1-3-1a8 8 0 0 0-1-2l-1-2 3 1m70 4h-3l-1-1v-1l2-1 1-1v1l1 1v2m56-39 1 1 5 1 1 1 1 1h-1l-3-1-3-1h-1l-1-1 1-1m-173 32 1-1h1l1 1v1h-1l-2-1m98-364h3l-1 1h-3l-1-1h2zM107 379l1 1v1l-1-1v-1m151 0v1-1m27-18v2h-1l1-2"/><path fill="#FEFEFE" d="M223 266v-1l-1 1h1m1-139v2l1-1-1-1m30 88-1-1-1 1 1 1 1-1m-76 57 1-1h-2l1 1m-7-25v-2l-1 1 1 1m18 11v1h1l-1-1m16-6-1 1 1 1v-2m-7 24-1-1v2l1-1m-12-2 1-1h-2l1 1m63-42-1 1 1 1v-2M98 150v-1l-2 2v1h1l1-2m138-25-1-1h-1l1 2 1-1m16 101 1 2h1v-1l-2-1m-67-92 1-1-2-2-1 1 2 2m-4-1 3 3h1l-1-1-3-2m-21-3v-1l-3-2-1 1 3 2h1m107 8-2-1h-2v1l2 1 2-1m-39-8 2-2-1-1 1-1 1-1h-2a51 51 0 0 0-2 3c-1 1 0 2 1 2m-94 1-1 1 1 1h3c1 1 2 1 2-1v-2l-3 1-2 1v-1m-3 2c-2 0-3 1-4 3v2l2-1 2-1 2 1 1-1-2-2-1-1m41-10-1 1v1h1c2 0 2 1 1 2v1h2l2 1 1-1h1l-1-1-3-2-2-1-1-1m-73 20-1-5-2-3h-1v1l2 3 1 3-1 1v2l1 3 1 1h1v-2l-1-4m-4 0c-2 0-5 2-5 3v2l-2 4-1 2h2l2-5 4-5v-1m47-15-2 1 1 2h4l3-1 2-1h5v-1l-5-2v1l-3 1-2 1-3-1m30-73h-2l-1 1v4l2 2 3-1 2-1-1-4-1-1h-2m142 89v-1l-1 2-2 4a6 6 0 0 0-1 2l-5 11-2 2v2h1l1-1 4-7 3-7 2-5v-2m-91-67h2l1-1a109 109 0 0 0 0-4l-1-1h-4l-2 1v4l2 1h2m92 63v-10a69 69 0 0 0-1-7l-1-5-3-3h-2l-5 4v1h1l3-3c2-1 4-1 5 2l1 6 1 5v7c-1 1 0 2 1 3m-45-1v-3a129 129 0 0 0-4-5h-1l-1 1-2-1-1-1-7-4-3-2h-11l-1 1c0 2-1 2-2 2h-2l-2 1c-1 0-2 0-1 1h1c1-1 2-1 2 1h2v-1h2v1l-1 1v1c3-2 5-2 8-2l-1 2h2l4 1h1l1-2a15 15 0 0 1 3-1l2 1-1 1-3 1h-1v1h6l2 1 1 1h1v-1l-1-1 1-1h2l1 2 1 2 2 1 1 1m-96 9h-2l-3-1-11-1h-4a4 4 0 0 0-1 1h-3l-2 1h-1l-3 1-2 1-2 2-1 1c-2 1-2 1-2 3v3c-1 1 0 2 1 2h1l2 1-1 1v1h3l3 2 4 1h10l2-1h1l5-1 4-2 2-1 2-2 2-1c1-1 2-3 0-5v-5l-7-5-7-3h-9l-7 2-9 5v1h1l1-1 4-2 7-3 6-1 8 2 6 2 2 2m40 13c0-2 0-2 2-2l2 1 7 4h4a40 40 0 0 1 4 2h12l2-1 4-2 2-4 2-1 1-4-3-4h-1l-6-3-3-1-6-1h-8l-1 1-5 1-2 1a7 7 0 0 1-1 0h-1l1-2 8-2c3-2 6-1 9-2h1l5 2h1c4 0 8 2 11 6l2 3h1v-1l-3-4-1-2-7-3-7-2-6-1h-1l-7 2-8 4-4 5-1 4v1l-1 3 1 3h1v-1m-22-74 8-1 1-1v-2a7639 7639 0 0 1 1-17h4c3 0 5-2 7-6v-6c0-3-1-5-3-7l-4-1a1184 1184 0 0 0-13 1l1 5v12c0 1 0 2-2 2h-4c-2 0-4 2-5 4-2 3-2 7-1 10 1 5 4 7 9 7h1m-7 147 1 1 6 1h1l6 1 2-1 6-2h1l3 1a37 37 0 0 0 10-5c2-1 5-2 6-4l1-3 1-2h1c1 1 2 3 1 5l-1 13v1l1 1 1-1v-2c0-3-1-6 1-9l1-2v2l-1 4 1 1 1-1v-2l1-2 1-3v-2l1-3v-6l-1-3v-2l1-2v-1c-1-1-1 0-2 1v2l-1 1-1-1v-1l1-6v-1l-1-2-1 1v2c0 1-1 2-2 1l-1-2v-2l-1-1v1c0 3-2 4-4 3l-2 1-1 1-2 1a6 6 0 0 1-1-2h-3l-1 2-1 1a13 13 0 0 0-2-1l-2-3v-1c2-1 3-3 3-5l-1-10-2-4v-4c-2-3-3-7-3-11v-9l-1-7-1-7 1-6v-2l-1 1-2 5 2 15v10l2 10 1 2 3 13-2 6c0 2-1 1-2 0l-4-3h-3l-2 1v4l-2 1h-4l-1-2c1-1 0-3-2-3l-3-2-1 1h-1c0 2-3 2-4 1s-2-3-1-4l1-6 4-8c2-4 3-9 3-13l1-18 1-8-1-2h-1v10l-2 15v6c0 4-2 9-4 12l-4 9c-1 3-1 5 1 8l2 1 8 3 1 1-1 1h-2c-1-1-2 0-3 1h-3l-2-1-1 1-3 1-1 2h-4l-2 1c-1-1-2 0-3 1s-2 0-2-1l-2-1h-1l-2-1h-3l-2 3-1 3-1 1-1 3v19l1 1 1-1v-2h1l1 1 1-1v-2l1-3 2-1h1l3 2v1l1 2 2 1h1v-2l-2-5v-1h2l5 4 1 1 9 3h2l1-1h-3a63 63 0 0 0-3-1h-1l-6-3c-3-1-5-4-7-6v-1h2l3 1 7 3 8 2 11 1 17-1 8-1h1l2-1 1 1-2 2c-3 1-5 3-9 3h-1l-3 1-7 1-7 1h-1l-2-1h-6M84 144v-1a90 90 0 0 0-1-4v-1l-2-10v-4l2-10 1-2 1-1 1 1 1 4v1l-1 2h4l1 1c2 1 2 2 2 3l-2 1c-3-2-5-2-7 0l-1 2v1h1v-1l2-1h4l1 3-2 4-2 6-1 3v4l1 1v-1l1-5 2-5v-2l1-2 2-4 1-3v-2l1-5-1-5-1-3-1-1-1-1c0-3-2-4-3-5h-2c-2 2-3 5-3 7l-2 5v1l-1 9v7s1 0 0 0l1 4v3h-1l-2-4v-1l-1-8v-1l1-4a140 140 0 0 1 2-7v-1l1-3 1-2v-1l1-5c1-4 4-4 6-2l4 5 2 5v2l2 1 1-1 2-11 3-12 1-3-1-1-1-1v-1h1l1-1 2-7 4-11 2-6 5-9 3-5 7-7 8-6 3-1 3-1c3-2 7-4 10-4l4-1 5-1 2-1h5l7-1h4l7-1h3l5-2 4-1h3a6 6 0 0 1 2 0h9l3 1c2 2 5 2 7 2h2c2 0 2 0 3 2h1c0-2 1-2 2-2h6l3 2h1l2 1 10 7h3l2 1 6 3 4 3 4 2 4 5 2 1 2 1 5 8 2 5c1 4 4 6 6 10l2 8 2 5 2 7 1 10-1 6v5a145 145 0 0 1 0 7l-1 6 1 3 1 2-1 5v3l1 2v2l1 5-1 2v2l2 2v4h-4v1h-1v-3l-3-1-1-1-1 1-1 4-2 3v3h1l2-3 2-3 3 1 1 5v3l1 6v2l1 5 1 1 1-1v-3l-2-5v-3a56 56 0 0 1 0-4v-1h1l2 1 1-2 1-3v-7c-2-2-2-5-2-7l1-1 2-1c1-2 3-2 5-2l1 1 1 2 1 1 1-1-2-3c-3-2-5-2-8 1l-1 1-1-1a4 4 0 0 1 0-1l-1-4v-1l4-3 3-5-2-3-3-2h-1v-1l3-5 6-3c1-1 4 1 5 3l1 3v1l2 14v2a140 140 0 0 1-1 4v3l-1 1c1 2-1 4-1 6l-1 4-1 6v1l-4 10-4 11a70 70 0 0 1-7 11c-2 3-5 2-7 0l-2-4-1-1-3-3-1 1-2 4-1 5-4 7-9 16-6 11a31 31 0 0 1-2 2l-6 12-4 8v1l-1 3c-2 2-2 4-3 7l-2 3c-2 1-2 2-2 3-1 3-3 5-6 7l-4 3-4 2-5 2c-2 0-4 3-6 4l-9 6h-1c-1 2-4 2-6 3l-2-1h-2l-2 1h-2l-6-1-1-1c-3 1-5 0-7-1a58 58 0 0 1-12-6l-10-6-3-2c-3-1-5-2-6-5l-6-9-1-3-1-1-3-5-5-15-3-9-4-10-5-10-1-3-2-5v-2l-1-2-4-13-1-5-3-10-3-7-1-2-2-5h-1v1l-1 2-2 4-3 7-2 3h-2c-3-2-5-5-6-9v-1l-1-2v-2l-1-3v-4l-1-3c0-3 0-5-2-7v-2l1-1 1 1 1 2 1 2"/><path fill="#FEFEFE" d="m192 352 1-1-1-3-8-4-2-1a53 53 0 0 1-10-6l-8-5-6-3a254 254 0 0 1-12-12l-1-2v-7l-1-20v-9l-2-8v-1l1-1h1v1l2 4 9 5 3 1 9 7 6 3 6 3 6 1 8 1h8a21 21 0 0 0 3-1l3-1 6-4 11-7 5-2a26 26 0 0 0 4-2l4-3 4-3 1-2h1v1l-1 3-1 2v1l-1 13v2l-1 1v16l-1 2-2 4c-1 4-4 7-7 9l-2 2-10 11-2 2-3 2-5 2a51 51 0 0 1-5 2l-6 3-1 1v3l1 2v1h-1l-2-2-1-1"/><path fill="#FEFEFE" d="M228 340h-1l-1 1h1l1-1m5 8h2v-1l-2 1m-28 12-1 1 1-1m52-22-1-1-1 1h2m-44 36v-1h-1v1h1m16-31 2-1-2 1m8 11 2-1v-1l-2 2m-30 8h-1l3 2 1-1 2-2-1-1h-1v2h-3m17-16h1l3-1v-2l-1-1-1 1c0 1 0 2-2 3m15-11-1-1-1 2-1 3-1 1h1l1-1 1-2 1-2m-24 21-2-1-4 2-1 1-1 1h2c1-1 3-3 5-3h1m32-3h2l1-2v-4h-1a9 9 0 0 0-1 1l-1 1v4m-14-4-2-1-1 1v2c0 1-2 2-3 1h-1v1l2 1c1 0 2 0 3-2v-1l2-2m-7 9h-1c-1 1-3 1-4 4h-5l3 2a23 23 0 0 0 3-1l1-1c0-2 1-2 2-3l1-1m-10 2h4c1-2 2-4 5-5l-1-1-1 1-1 1-3 2c0 1-1 2-2 1h-3l1 1h1m16-20 1 1 1 2-4 2-3 2c0 2-1 2-2 2l-1-1h-1v1l2 1 1 1 2-2 1-1 1-1 2-2h4l1 1 1-1 1-1 1-1-1-1v1h-3a4 4 0 0 1-1-1c0-1-1-2-3-2m-18 10 1-1 1 1v1l1 1 1 2-1 2h1l2-1v-4l2-1h-2l-1 1-1-1-1-1-1-2v-3l1-2h2l1 2v2l1 1h1l1-1-1-1-1-1 1-1c1 0 2-1 1-2l-1 1h-1v-1l1-2 1-1 1 1v2l1-2 1-1v-2l1-2 1 1 1 2 1 1v1h2l2-1 1-1 1-2v-2l-1-1-1 1-1 3h-3l1-1 2-2 2-3v-1h2l1 1v1l3 1c1 1 2 2 1 4l3-1 2-3v-1l2-2 2 1v1l-2 1-1 2c0 1 0 2-2 2l-1 1 1 1 1 1 1 1 1 1h2l2-1 1-1-1-1v-4h-1l-1 1-1-1v-2h4l2 3h2l1-1 2-1 1-1 1 2c-1 2-2 3-4 2l-1 1 1 1-2 3h-2l-1 1h-4l1 2 1 3c0 1 0 2 2 2 0-1 0 0 0 0v1h-1l-1-1-1 1 1 1v2l-2 1v1l-2 2v1l-2-1-1-1v-5l1-2h-2v1l-1 1a4 4 0 0 1-2-1v-1l1-2h1l1-2 1 2 1 1 1-1-1-1-2-3v-1l-2-2-1-2-1-1-1 1c0 2 1 3 2 3l1 2a19 19 0 0 0 0 3l-1 2-2-1h-1c-1 1 0 2 1 2l3 3-1 2-2 2-1 1-1 3 1 1 1 1h1v2l-3 3-2 1-3 3-2 1c-1-1-2 0-1 1l-2 3-2 1h-2v-1l2-3-1-1v-1a18 18 0 0 1 2-2h1l2 1v-3l1-1v-1h2l-1 4v1l1-1 2-3v-2c-1-1-1-1 1-2v-2l1-4v-2c-1 1-2 0-2-1l1-2 2-2h-1l-3 2v2l-1 2-2 1h-1l1 2h1a19 19 0 0 0 2-2l1-1v2l-1 2h-4l-1 1-2 2-2 1-1 3h1l1 1-1 1-2 2h-1l-2 1-2 3-1-1 1-1v-2l-1-1-1-1h-1c-1 1-1 2-3 2a4 4 0 0 0-1 0h-1l1 1h2l2-1h1v4l-1 1c-1 1-2 1-2 3v1l-1-1h-1c1-2 0-3-1-4h-1l-1-4 1-1 1-1 2-1c1 1 2 0 2-1v-1l1-2-2 1v1l-2 1-2 1-1 1-2-1-1-4-1-1v-1l-1-2a5 5 0 0 0 0-1l-1-1c-2-1-2-1-1-2l-1-2-1-2c0-2 1-3 2-3l3-1h2l2 1v1l-1 1-2 2h-1v-3h-2v4l1 1v2h2l1-1 1-2h1v3h1l1-2 2-1 1-2c-1-2-1-3 1-5h1l1 1-1 2v1zm-49-2-1 1 2 2 1-2-2-1m-4-8 2 2 1-1-1-1c0-2 0-1-1-1l-1 1m-21-15 3 2v-1l-1-1-1-1h2l1 1 1 1v-2l-1-2v-1h2a21 21 0 0 1 2 3v1l1 2h2l1 1 4 4h2l1-1 1 1-1 1h-1v1h1l1-1 2 1a139 139 0 0 0 2 4l3 2v1l-3 3c-2 1-4 0-4-2l-1-1-1 1 1 2 1 1 1 1 1 1 1-1c0-1 1-2 2-1l1-1 1-1h3v2c-1 0-1 2-3 1v2l2 1v-1l2-1 1-1 2-1v2c1 1 0 2-1 2h-1c-1 2-1 2-2 1h-1v2h-3v2h-3v1c1 1 0 2-1 2l-1 1h-1l-1-1 1-1 1-1c0-1 0-2 2-3l1-1-1-1h-1l-1 1-2 1v1l-1 1h-1l-1-2 1-1 1-1 1-1 1-1c1-1 1-2-1-2l-1 1c0 2 0 2-2 2l-1-1 1-2h1a7 7 0 0 0 0-2l-1-1v1l-2 1-1 1-1 1h-1l-2-1v-1l3-1v-1l1-1 2-1 2-2 2-1 1-1-1-1h-1c-2 1-2 0-2-1l-2-2-1-1-4-2-1-2-2-2v1l-2 3h-1l-1 1 1 1 2 2c0 1 1 2 2 1 1-2 1-2 2-1h1c0-1-1-2-2-1h-3v-3h1a41 41 0 0 1 4 1l2 2 1 1-1 1-1 1c0 1-1 2-2 1 0 2-3 2-2 3l-1 1-1-1a19 19 0 0 1-2-1l-1-1 1-1h2a2 2 0 0 0-1-1l-1-1-1-2-1-1-1 1-1 1-3-3v-2l1-1 1-1 2 1 1 1c0-1-2-2-1-4m-16 35h2l1 2v2l-1 1h-1l2 1c1-1 2 0 2 1l-1 1h-2l-1 1-2 1v-1l-1-1h-1l-1 1-2-1 1-1h2l2-2 1-1v-1l-1-1-1-2v-2l-1 1c-1 1-1 1-2-1l-1-1h-2l-1 1h-1l1 1 3 1 1 1 1 1 1 1v2l-1 1-1-1-1-1h-4c-2-1-2-1-3 1h-3l-1-1-2-1-2 1-1-2 1-1 3-1 2 1 1 1h8l-1-1-3-1h-2c0 2-1 1-2 0a8 8 0 0 0-2-2l-1 1c-1 1-2 2-4 1h-2v2h-2a8 8 0 0 1-1-2v-1h3l2-2v-1l-1-2 1-1h5v-1h-4l-1-1 1-1 2-1h2l1 2 1 1 1-1-1-1v-1l-1-1 2-1c2 1 2 1 1 3v2l-1 1-2 1v2l1 1 2 1 1-2h1v-4l2-1 2 1v2l-1 1h3l3 2 1-1h3l1 1-1 2-2 1m140 6v1l3 1 1-1-4-1m4-2-4-1h-1c1 1 4 2 5 1m-3-12c-1 2 1 2 1 3l1 2c-1 0 0 0 0 0l4 1 2 1c1 0 2 2 1 3h-2l-2-2h-1v1l1 1 2 2 1 1 1 1-1 1h-1v-1l-2-1v6h-5l-2-1v-3l-2-3 1-3 2-1 1 1 1-1h-1l-1-1h-1l-2-1 1-1h1c-2-2-3-2-4 0h-2l-1-1-1 1v5l1 1-2 1h-5l-2-2-1-1h2l2 1h1l1-1a6 6 0 0 0 1-2h-1l-1 1h-1l-1 1-1-1 1-1 2-2 2-1 1-1 3-1h6l1-1v-1h1"/><path fill="#FEFEFE" d="m142 363-1-1v1h1m-5-1 2-1v-1l-1 1-1 1m6 3h-2v1l4 1 1-1-1-1h-2m4 2 1 2 1 1v1h-2s0-1 0 0h-6v-2h2l-1-1-3 2-2 1-1-1-1-1-3 1h-2v-4l1-2 1-1-1-1h-2l-1-1v-1h2v-2l-1-1-1-2h3c0 2 2 3 3 5v4l-1 1-1 1 3 1 3 1v-1c-1-1 0-1 1-2v-1h-1v1h-2v-3l-1-2 1-1v-2l-1-2h-1l-2-1v-4h1l2 3 1 1c2 0 2 2 1 3v2h2v-1h2c0 2 1 2 2 3l1 1 1 1c2 0 3 2 5 3v1l-1 1-2-1m26-7v3l-2 1a5 5 0 0 1-1 0l-1-1v1l-1 1h-1c-1-1 0-4 1-4h1l1 1v-3l2-1h1l1-1h1v1l1 1 1 1h2l2-1v-1h-1l-2 1-2-3v-1l1-1 1 1 2 1-1-2v-1l2-1 1 3v2h4v2c0 1-1 2-2 1l-1 1-1 1-1 1h-1l-1 1v2h2l1 1-1 1c-2 0-2 0-2-2l-1-1h-2l-1 1-1 2-1 1h-1l-1-3 3-1v-1l3-1 1-1-1-1h-4v-1m-39-15-1 1-2-1-1-1v-1l1-1 1-1 3-2 1-1h1l1 1v1l-1 1-1 1-1 1 2 4 1 1 1-1 2-1v-1l2-1h2v3l-2 1c-1 1-1 2-2 1l-1 1-1 1v1h-1l-2-1v-2c1-1 1-1-1-1l-1-2v-1m-19 25h-2v-1l1-1-2-1-1 1c-1 1-2 1-3-1l-1-1-1 1v1l1 1 1 1-1 1-2-1-2-1-1 1-1 1-1-1-2-1v-2l1 1h2l1-1 1-1c-1-1 0-2 1-2a22 22 0 0 1 4 2h2l3-1h3l1 1v2l-1 1-1 1m152-21h-1v-4l-1-1h4c-1-1-3-1-2-3h3v2l1 1v4l-2 1h1c2 0 2 1 1 2v2l-2 1h-2v-3l-1-1 1-1m-96 4c0-1 0-2 2-2l1-2h2l1 2c1 1 0 2-1 2l-1 1-2 1h-1a9 9 0 0 0-1 1v1l-2 1h-1c0 2-1 2-2 1h-1l-2 1v-1l1-1 1-1 1-1 1-1 4-2m-40-16v2h-5v-1h1l1-2c1-1 0-2-1-2 0 1 1 3-1 2l-1-1 1-2v-1l1-1h1l1 2 1 1 1-1h1l1 2 1-1 1-1v2l-1 2h-3m124 32-2-2-1-1 1-1h4l4 2v2h-2l-1-1-1-1-1 1v2l2 1h3l2 1-1 1h-2l-3-1h-4v-1l1-1 1-1m26-20v-1l2-1 1 2-1 1h-2l1 2 1 1v1l-2 1-1-2-1-2-1-4v-2h-1l-1 1h-1v-1l1-1 1-2h2l2 4v1l-1 2 1 1v-1m-93 5v-1l-1-1h-1l-1 1a32 32 0 0 0-2-2v-2l5-1 1 1 1 2c1 1 1 3-1 3v2l-1 1-1-1v-1l1-1m-82-10-3-3-2-1 1-1h1l5 2h1v1l-1 3-2 2-2-1-3-2-1-1 1-1h1l4 2m8-6 1 2-1 1-1 1 1 2h1v1h-1l-2-1-1 1-1 1h-1v-1l1-2v-2l1-1 1-1h1l-1-1v-1l1-1h1l1 1v1h-1m191-212-1 3c-1 1-3 1-3 3h-2v-1l1-4c0-2 2-3 3-3 2 0 2 1 2 2m-29 248-2 3-2-1a7 7 0 0 0-1-1h-2l-3 1c-1 0-2 0-2-2-1-1 0-2 1-2l6 1 1 1h2l1-1 1 1m-118-5h2l1-3h1l2-1 2 2v2l-2 1h-1l-2 2h-2l-2-2 1-1M87 111c-1 0-3-3-2-4a17 17 0 0 1 2-3h2l2 3-1 2-2 2h-1m4 0 2 1 1 5-1 1h-1l-2-2-1-2c-1-2 0-3 2-3m26 236 1 1 1 1 1 1 1 1 1 2-2 1-1-1c-1-2-2-3-4-3h-1l-1-1 1-2h3m124-28-1 1-1 2-2 2h-2v-1l-1-2 4-3c2-1 3 0 3 1m-77 56h-2l-1-1h1l1-2 1-1h2l2-2c1-1 2 0 2 1l-1 1-1 1-1 1c-2 0-2 0-1 1l-2 1m-11-16h2l1-1 2 2-1 1-2 1c-1 1-2 1-2 3h-1l-2-2 1-2 1-1 1-1m-10-5-2-1 1-1 1-1v-1l4-3h1l1 2-1 1-2 2v1l-3 1m100 13 2 1 1 2h-2c-2 0-2-1-2-2l-1-1 1-2 1-1 1-1h2v2l-1 1-1 1h-1m4-41-2 1-1-1-1-2-3 1v1l-2 1v-2l3-2 1-1v-2h1l1 1v1l1 2 1 1 1 1m30 31-2-1-1-2-1-2 2-1 2 1 1 1 1 2 1 1h-1l-2 1m-47-30h1v-3h2l1 1-1 3h-3l-2 3h-1l-1-1 3-3h1m-75 38 1-1c1-2 3-3 5-2l1 2h-4l-1 3h-2l-1-2h1m32 5-2 1h-1l1-2 3-1h1v7l-2-1v-1l1-1v-1l-1-1"/><path fill="#FEFEFE" d="M178 368v2l2 1 1-1 1-1v2l-1 1v2l-2-1a6 6 0 0 1 0-1h-2l-2-1h-1l2-2 2-1m47-4 1-1 3-2 1-1 2 2-1 1-2 1-2 1v1l-1-1-1-1m-98-21-1 2-1-1c-1-2-2-2-3-2l-2-1 1-1c2-1 3-1 4 1l1 1 1 1m117-10-2-1v-2l3-1 1-1 1-1h1v2h-1l-2 3-1 1m-19 0v1l-2 3-4 2h-1v-1l1-1 4-3v-2h2v1m32-5c0 2-2 3-3 3-1-1-2-2-1-3l1-2 1-1 1 1 1 2m-44 17-3 1-1 1v-2l4-2 1-1 1-1h1v2l-2 1-1 1m19 34-2-2v-2h1c2-2 2-1 4 0v1l-3 2v1m18 0-3-1-1-1a13 13 0 0 1-1-2l1-1 1 1a8 8 0 0 1 1 1l2 1 2 1-2 1m1-11-1 2h-2l-1-2v-1l1-1 2 1 1 1m-7-12-2 4h-3l1-2 2-2v-1h1l1 1m-95 4-1-1 1-2 2-1 2-2h1l1 2-3 2-1 1-2 1m2-9 1 1v1a34 34 0 0 1-3 2h-2l1-2 3-2m35 25-2 2h-2v-3l2-2 1 1v2h1m13 1v-8h1v2l1 4v3h-1l-1-1m-72-27c-2 0-3-2-2-3h2l1 1h1l1-1 1 1-1 1-3 1m130-1-2-2v-3h1l1 1 1 1 1 1-1 1-1 1m-132 2h3l1 1v1h-5l-1-1v-1h2m128-27-1 3h-2l-1-1 1-1 1-1 1-1 1 1m-2 49-1 2-2-1-1-2-1-1h2l2 1 1 1m-113-48h-1l-2-2c1-1 2-2 3-1l1 1v2h-1m-5 3-1-1 1-2h1l2 1-1 1-2 1M101 81l-2 1c-1 0-2-1-1-2l1-2 1-1v2l1 2m157 252h-1l-1-1v-1l2-1h2l-1 2-1 1M93 353v-1l1-1h1v4h-1l-1-2m181-7 1 1 1 1h1v1l-1 1h-1l-2-2v-1l1-1m-11 30-1 2-2-1-1-1v-1h3l1 1m-20-49-2 3-1-1-1-1 2-1 1-1 1 1M94 360v-2h1l1 2-1 2h-1v-2zm60-21-1-2v-2l2 1v1l1 1-1 1h-1m-58 4v-1l2 1 1 1-1 2-2-1v-2m176 14c-2 0-3-1-3-2l1-1 2 1 1 1-1 1m-26-35 3-1 1 1-2 2-2-2m32 38-1 1h-1l-1-1-1-2h2l2 2m-140-18 2 2-1 1-2-1 1-2m8 13 1 1-1 2h-3l1-1v-1l2-1m127 14 2 1-2 2-1-2 1-1m-66 6-2 3-1-1v-1l1-1 1-1 1 1m43-36h-2v-2h3v1l-1 1m-18-8-1 3h-2v-2l2-2 1 1m-43 32-1-1 2-2 1 1-2 2m86 5 1-2h1l1 2-1 2-1-2a8 8 0 0 0-1 0m-179-1v2h-2a12 12 0 0 1 0-3l2-1v2m147 4h1l1 2h-1a9 9 0 0 1-3 0v-1l1-1h1m-90-31-1 1-2-1 1-2 2 2m50 29c1 0 2 2 1 3h-1l-1-1v-1l1-1m-84-32-1-1 2-1 1 1-2 1m-20 1 1 1v1c-1 1-1 2-2 1l-1-2 2-1m160 20 1 2-1 1-2-1 2-2m-117-40 1-1 2 2-2 1-1-2m117 26-1-1h1l1-1 1-1v1l-2 2m-1 19h2l1 2h-2a5 5 0 0 1-1-1v-1m-107 6 1-1 2 2-1 1-2-2m50-7-1 1-2-2 1-1 2 2m77 2-1 1-1-2 1-1 1 2m-160-21-1 1-2-2 1-1 2 2m22-21-1-1 1-1c1 0 2-1 2 1l-2 1m48 45-1-1c-1-1 1-1 1-1l2 1-2 1m-79-31 1 1-1 1h-2v-1l2-1m39 5 2 1-1 2-2-2 1-1m-17-10c-1 1-1 0-1-1l-1-1 1-1 1 3m132 10 1-2h1v1l-1 1h-1m-147 30 1 1-1 1-2 1v-2l2-1m129-11-1-1 1-2 1 1-1 2m29-16-2-2 1-1 2 2-1 1m-10 6-1 1-2-2 1-1 2 2m-142-2-1 1-1-1 1-1 1 1m123-28 1-1 1 1-1 1-1-1M96 348l-2-1v-1l2 1v1zm168-11 1-1c1 0 2 0 1 1l-2 1v-1m-104 40v1l-1 1-1-1 2-1m-40-32-1-1 1-1 2 1v1h-2m159 17 1-2 1 1-1 1h-1m-138-20-1-1 1-1 1 1-1 1m-43 23 3-1h1v1h-4m146-47v1h-1l-1-2v-1l2 2m-49 46c-1-1-2-1-1-2l1-1 1 2-1 1m-100 9 1-1 1 2-1 1-1-2m164-23 1 1-1 1h-2v-1l2-1m-19 17v1l-2 2v-1c0-1 0-2 2-2m-130-10-1-1 2-2 1 1-2 2m72 8 1-1 1 1-2 1v-1m27-14-1 1h-1l2-2v1m-91-11h-1l-1-1 1-1 1 2m122-24-2 1v-1l1-1 1 1M103 80l-1-2h1l1 1-1 1m-4 275-1 1-1-2 1-1 1 2m139 16-1 1-1-1 1-1 1 1m52-29-2 1-1-1 1-1 2 1m-194 6 1 1v1h-1v-2m184 9 1-1 1 1-1 1-1-1m-92 19h1l1 1h-1l-1-1m75-31 1 1-1 1h-1l1-2m-124-10h2v1l-2-1m-39 12v-2l1 1-1 1m55 3v1l-1-1v-1l1 1m13-13 1 1v1l-2-2h1m117 8h-1l-1-1h1l1 1m-156-4-1 1v-2l1 1m53 5-1-1 1-1 1 1-1 1m17 19 1 1a2 2 0 0 1-1 0v-1m39 9-1 1-1-1h2m-35-7h-1v-1l1 1m110 0c1 1 1 2 3 2l2 4-1 1h-1l-1-3h-3c-1 0-2-1-1-2l1-1v-1l1-2h2v1l-2 1m-2 8-1-1-1 1-1 2-1-1 1-2v-2h4l1 1v1l-2 1m6-21-1 1h-1l-1-2h-1l-1 1-1-2 2-1h1l2 1 1 2m5 11 4 2v1l-1 1a18 18 0 0 1-3-2l-1-1 1-1m-6 14h-1l-1-3v-1h1l2 2 1 1-2 1m-5-21-1-1v-2h4v1l-1 1-2 1m20 9-2 2-1-2v-2h1l2 2m-9 2c1 0 2 0 3 2v1h-1l-2-1-1-1 1-1m-2-1-1 1h-1l-2-2 1-1 3 2m-10-6-1-2 1-2 2 2-2 2m0 2-1 2-2-1 2-2 1 1m9-2 2 1-2 2-1-1 1-2m2 10 3 2v1h-1l-2-1-1-1 1-1m0-12-2-1 1-1 2 1-1 1m0-6 2 2-2 1-1-2 1-1m11 7c-2 0-2-1-3-2l1-1 2 1v2m-5 15-1-1 1-1 2 1-2 1m2-3c-2 0-2-1-2-2v-1l3 2-1 1m-22-5 2 1-2 1-1-1 1-1m0 10-1 1-2-1 1-1 2 1m7-16 2 1-2 1-1-1 1-1m17 1h-1l-1-1v-1l2 2m-5-5c-1 0-2 0-1-1v-1l2 1-1 1m-20 16-1-1 1-1 1 1-1 1m20-14 1 1-1 1-1-1 1-1m-1 4-1 1-1-1 1-1 1 1"/><path fill="#2B2B2A" d="m179 207-1-1v1h1m20-3h1l-1-1v1m20 5 1-1h-1v1m-64 3v-2h-1l1 2m75-5 1 1 1-1h-2m-78 16a19 19 0 0 0-1 2h1v-2m33-9 1 1 1-2s0-1 0 0l-2 1m24 2-1-1-1 1 1 1 1-1m-50 4 1 1 1-1-1-1-1 1m34-16-1-1-1 1 1 1 1-1m-3 15 1-1c0-1-1-2-2-1h-1l2 2m7-13 1-1-1-1-2 1 2 1m17 11-1-2-2 1 2 1h1m13-11v1l1 1 1-1v-2l-1-1-1 1v1m-68 4-1-1-1 1-1 1 1 1h1l1-2m51 3h1l1-1-2-2-2 1 2 2m-7 2 1-1-2-2-1 1 2 2m-50 1v-2l-1 1v4l1 1v-4m46 7 2-2v-1h-2l-2 1v1l2 1m-38 3v-4l-2-1-1 2 1 4h1c1 1 1 0 1-1m5-6 3-1 1-1-2-2h-1l-2 1-2 1 1 1 2 1m26-10-2 2-1 2 1 2 2-1 1-3c1-1 0-2-1-2m12-8-2 1-2 3v3h2l4-4c0-2 0-3-2-3m17 17c0-1-1-2-2-1h-1l-2 2 1 2h1l4 1c1 1 2 1 2-1l1-1h1l-1-3h-1v1c0 2 0 2-2 2l-1-1v-1m-47 0 10-2 1-1v-1h-6l-2 1-3-1-2 1v2l2 1m39 3h1c1-1 1-2-1-3l-2-1-2 1c-1 1-1 1-2-1h-2l-2-1c-1-1-2-2-3-1-2 1-3 0-4-1h-3v1c-1 2 1 4 3 4a13 13 0 0 0 3-2h2l2 1h1l2 2 5 1h2m-19 6 10-1h9l1-1h6l1-1-1-1c-5-1-10 0-14-2a5 5 0 0 0-1-1l-3 1c-1 2-4 2-6 1a80 80 0 0 1-3-2h-3c0 1 0 2-1 1l-1-1c0-2-1-2-2-2a9 9 0 0 1-2 1h-3l-10 1h-3l1 1 10 4 5 1 10 1m-9 6h6l2 1h1l7-1 7-1 3-1h1c4 0 6-2 9-3l2-2-1-1-2 1h-1l-8 1-17 1-11-1-8-2-7-3-3-1h-2v1c2 2 4 5 7 6l6 3h1a61 61 0 0 1 4 1h2l-1 1h-2l-9-3a7 7 0 0 0-1-1l-5-4h-2v1l2 5v2h-1l-2-1-1-2v-1l-3-2h-1l-2 1-1 3v2l-1 1-1-1h-1v2l-1 1-1-1v-19l1-3 1-1 1-3 2-3h3l2 1h1l2 1c0 1 1 2 2 1s2-2 3-1l2-1h4l1-2 3-1 1-1 2 1h3c1-1 2-2 3-1h2l1-1-1-1-8-3-2-1c-2-3-2-5-1-8l4-9c2-3 4-8 4-12v-6l2-15v-10h1l1 2-1 8-1 18c0 4-1 9-3 13l-4 8-1 6c-1 1 0 3 1 4s4 1 4-1h1l1-1 3 2c2 0 3 2 2 3l1 2h4l2-1v-4l2-1h3l4 3c1 1 2 2 2 0l2-6-3-13-1-2-2-10v-10l-2-15 2-5 1-1v2l-1 6 1 7 1 7v9c0 4 1 8 3 11v4l2 4 1 10c0 2-1 4-3 5v1l2 3a13 13 0 0 1 2 1l1-1 1-2h3a6 6 0 0 0 1 2l2-1 1-1 2-1c2 1 4 0 4-3v-1l1 1v2l1 2c1 1 2 0 2-1v-2l1-1 1 2v1a248 248 0 0 0 0 8l1-1v-2c1-1 1-2 2-1v1l-1 2v2l1 3v6l-1 3v2l-1 3-1 2v2l-1 1-1-1 1-4v-2l-1 2c-2 3-1 6-1 9v2l-1 1-1-1v-1l1-13c1-2 0-4-1-5h-1l-1 2-1 3c-1 2-4 3-6 4a37 37 0 0 1-10 5l-3-1h-1l-6 2-2 1-6-1h-1l-6-1-1-1m15-179v4c0 1 0 2 2 2l3-1c2 0 2-1 3-3 0-3-1-6-5-6l-2 1-1 1v2m-13 21v1c0 3 2 4 4 4h3c1 0 2-1 1-2v-7l-2-1h-2c-2 1-4 2-4 5m5 11h-1c-5 0-8-2-9-7-1-3-1-7 1-10 1-2 3-4 5-4h4c2 0 2-1 2-2V52l-1-5 1-1a1184 1184 0 0 1 16 1c2 2 3 4 3 7v6c-2 4-4 6-7 6h-4l-2 2 1 15v2l-1 1-8 1"/><path fill="#2B2B2A" d="m216 157 2-1-2-2-1 2 1 1m13 6-1-1-2-4-2-4c0-1-1-3 1-5v-1h-1l-6 3-1 2h1l2 3-1 1-1 1 1 1 3 1 5 3h2m16-15-1 1v1c2 3 2 7 0 9l-3 3v1l1 1 4-1c3-1 5-4 7-6v-2l-1-2-5-4-2-1m-1 7-1-4c-2-3-2-4-6-5h-5l-1 1-4 3c-1 1-2 2-1 4l2 4v2l2 2a3 3 0 0 1 2 0c1 1 3 2 4 1l4-2c2-2 4-3 4-6m-30 6v1h-1l-1-3 1-3v-1l1-4 4-5 8-4 7-2h1l6 1 7 2 7 3 1 2 3 4v1h-1l-2-3c-3-4-7-6-11-6h-1l-5-2h-1c-3 1-6 0-9 2l-8 2-1 2h1a7 7 0 0 0 1 0l2-1 5-1 1-1h8l6 1 3 1 6 3h1l3 4-1 4-2 1-2 4-4 2-2 1h-12a39 39 0 0 0-4-2h-3a2 2 0 0 0-1 0l-7-4-2-1c-2 0-2 0-2 2m-37-4-1-2-1 2 1 1 1-1m-1-3h1l-1-2-1-1-6-3h-3v1c2 1 2 3 2 5v6l-1 1h2l4-1v-5l3-1m-22 12 1-1-1-1-2-2c-3-3-3-7-1-12v-1l-1-1-3 2-3 1-4 5c-2 2-2 2 1 3l2 2c1 3 2 4 5 4h1l5 1m13-12c0-2-1-4-3-5l-1-1-6-1c-3 1-4 2-5 4-2 3 0 7 1 10l1 1 3 2h4c1 0 3 0 4-2l2-6v-2m7-6-2-2-6-2-8-2-6 1-7 3-4 2-1 1h-1v-1l9-5 7-2h9l7 3 7 5v5c2 2 1 4 0 5l-2 1-2 2-2 1-4 2-5 1h-1l-2 1h-10l-4-1-3-2h-3v-1l1-1-2-1h-1c-1 0-2-1-1-2v-3c0-2 0-2 2-3l1-1 2-2 2-1 3-1h1l2-1h3a4 4 0 0 1 1-1h4l11 1 3 1h2m73-21 1 2 1 1h4l-1-1-2-2-3-2-4 1v1l1 1h1l2-1m23 12-1-1-2-1-1-2-1-2h-2l-1 1 1 1v1h-1a3 3 0 0 1-1-1l-2-1h-6v-1h1l3-1 1-1-2-1a15 15 0 0 0-3 1l-1 2h-1l-4-1h-2l1-2c-3 0-5 0-8 2v-1l1-1v-1h-2v1h-2c0-2-1-2-2-1h-1c-1-1 0-1 1-1a20 20 0 0 1 2-1h2c1 0 2 0 2-2l1-1h11l3 2 7 4 1 1 2 1 1-1h1a128 128 0 0 1 4 5v3m45 1c-1-1-2-2-1-3v-7l-1-5-1-6c-1-3-3-3-5-2l-3 3h-1v-1l5-4h2l3 3 1 5 1 7v10m-92-63h-2l-2-1v-4l2-1h4l1 1v4l-1 1h-2zm91 67v2l-2 5-3 7-4 7-1 1h-1v-2l2-2 5-11a6 6 0 0 1 1-2l2-4 1-2v1M172 55h2l1 1 1 4-2 1-3 1-2-2v-4l1-1h2m-30 73 3 1 2-1 3-1v-1l5 2v1h-5l-2 1-3 1h-1a21 21 0 0 1-3 0l-1-2 2-1m-47 15v1l-4 5-2 5h-2l1-2 2-4v-2c0-1 3-3 5-3m4 0 1 4v2h-1l-1-1-1-3v-2l1-1-1-3-2-3v-1h1l2 3 1 5m73-20 1 1 2 1 3 2 1 1h-1l-1 1-2-1h-2v-1c1-1 1-2-1-2h-1v-1l1-1m-41 10 1 1 2 2-1 1-2-1-2 1-2 1v-2c1-2 2-3 4-3m3-2v1l2-1 3-1v2c0 2-1 2-2 1h-3l-1-1 1-1m94-1c-1 0-2-1-1-2a51 51 0 0 1 2-3h2l-1 1-1 1 1 1-2 2"/><path fill="#2B2B2A" d="m267 138-2 1-2-1v-1h2l2 1m-107-8h-1a31 31 0 0 1-3-2l1-1 3 2v1m21 3a69 69 0 0 1 3 2l1 1h-1l-3-3m4 1-2-2 1-1 2 2-1 1m67 92 2 1v1h-1l-1-2m-16-101-1 1a7 7 0 0 1-1-2h1l1 1M98 150l-1 2h-1v-1l2-2zm151 82v2l-1-1 1-1m-63 42-1-1h2l-1 1m12 2-1 1v-2l1 1m7-24v2l-1-1 1-1m-16 6 1 1h-1v-1m-18-11-1-1 1-1v2m7 25a8 8 0 0 1-1-1h2l-1 1m76-57-1 1-1-1 1-1 1 1m-30-88 1 1a4 4 0 0 1-1 1v-2m-1 139h-1l1-1v1m9 74c2 0 3 1 3 2l1 1h3v-1l1 1-1 1-1 1-1 1-1-1h-4l-2 2-1 1-1 1-2 2-1-1a11 11 0 0 1-2-1v-1h1l1 1c1 0 2 0 2-2l3-2 4-2-1-2-1-1m-16 20h-1l-1-1h3c1 1 2 0 2-1l3-2 1-1 1-1 1 1c-3 1-4 3-5 5h-4"/><path fill="#2B2B2A" d="m226 358-1 1c-1 1-2 1-2 3l-1 1a22 22 0 0 1-3 1l-3-2h5c1-3 3-3 4-4h1m7-9-2 2v1c-1 2-2 2-3 2l-2-1v-1h1c1 1 3 0 3-1v-2l1-1 2 1m14 4v-4l1-1 1-1h1v4l-1 2h-2m-32 3h-1c-2 0-4 2-5 3h-2l1-1 1-1 4-2 2 1m24-21-1 2-1 2-1 1h-1l1-1 1-3 1-2 1 1m-15 11c2-1 2-2 2-3l1-1 1 1v2l-3 1h-1m-17 16h3v-2h1l1 1-2 2-1 1-3-2h1m30-8 2-2v1l-2 1m-8-11 2-1-2 1m-16 31h-1v-1h1v1m44-36h-2l1-1 1 1m-52 22-1 1 1-1m28-12 2-1v1h-2m-5-8-1 1h-1l1-1h1m-67 0 1-1c1 0 1-1 1 1l1 1-1 1-2-2m4 8 2 1-1 2-2-2 1-1m103 16c-1 1-4 0-5-1h1l4 1m-4 2 4 1-1 1-3-1v-1m-121-1h2l1 1-1 1-4-1v-1h2m-6-3 1-1 1-1v1l-2 1m5 1h-1v-1l1 1"/><path fill="#FEFEFE" d="m194 228-10-1-5-1-10-4-1-1h3l10-1h3a9 9 0 0 0 2-1c1 0 2 0 2 2l1 1c1 1 1 0 1-1h3a79 79 0 0 0 3 2c2 1 5 1 6-1l3-1 1 1c4 2 9 1 14 2l1 1-1 1h-6l-1 1h-9l-10 1m19-6h-2l-5-1-2-2h-1l-2-1h-2a13 13 0 0 1-3 2c-2 0-4-2-3-4v-1h3c1 1 2 2 4 1 1-1 2 0 3 1l2 1h2c1 2 1 2 2 1l2-1 2 1c2 1 2 2 1 3h-1m-39-3-2-1v-2l2-1 3 1 2-1h6v1l-1 1-10 2m47 0v1l1 1c2 0 2 0 2-2v-1h1l1 3h-1l-1 1c0 2-1 2-2 1l-4-1h-1l-1-2 2-2h1c1-1 2 0 2 1m-17-17c2 0 2 1 2 3l-4 4h-2v-3l2-3 2-1m-12 8c1 0 2 1 1 2l-1 3-2 1-1-2 1-2 2-2m-26 10-2-1-1-1 2-1 2-1h1l2 2-1 1-3 1m-5 6c0 1 0 2-1 1h-1l-1-4 1-2 2 1v4"/><path fill="#FEFEFE" d="m199 223-2-1v-1l2-1h2v1l-2 2m-46-7v4l-1-1v-4l1-1v2m50-1-2-2 1-1 2 2-1 1m7-2-2-2 2-1 2 2-1 1h-1m-51-3-1 2h-1l-1-1 1-1 1-1 1 1m68-4v-1l1-1 1 1v2l-1 1-1-1v-1m-13 11h-1l-2-1 2-1 1 2m-17-11-2-1 2-1 1 1-1 1m-7 13-2-2h1c1-1 2 0 2 1l-1 1m3-15-1 1-1-1 1-1 1 1m-34 16 1-1 1 1-1 1-1-1m50-4-1 1-1-1 1-1 1 1m-24-2 2-1c0-1 0 0 0 0l-1 2-1-1m-33 9v2h-1a19 19 0 0 1 1-2m78-16h2l-1 1-1-1m-75 5-1-2h1v2m64-3v-1h1l-1 1m-20-5v-1l1 1h-1m-20 3h-1v-1l1 1m8-131c0-3 2-4 4-5h2l2 1v7c1 1 0 2-1 2h-3c-2 0-4-1-4-4v-1zm13-21v-2l1-1 2-1c4 0 5 3 5 6-1 2-1 3-3 3l-3 1c-2 0-2-1-2-2v-4m35 104-1 1 1 1h1v-1l-1-1m1-4c0-2-1-3-2-3-2 0-3 1-3 2 0 2 2 3 2 3 2 0 3-1 3-2m8 0c0 3-2 4-4 6l-4 2c-1 1-3 0-4-1a3 3 0 0 0-2 0l-2-2v-2l-2-4c-1-2 0-3 1-4l4-3 1-1h5c4 1 4 2 6 5l1 4"/><path fill="#FEFEFE" d="m245 148 2 1 5 4 1 2v2c-2 2-4 5-7 6l-4 1-1-1v-1l3-3c2-2 2-6 0-9v-1l1-1m-16 15h-2l-5-3-3-1-1-1 1-1 1-1-2-3h-1l1-2a433 433 0 0 1 7-3v1c-2 2-1 4-1 5l2 4 2 4 1 1"/><path fill="#FEFEFE" d="m216 157-1-1 1-2 2 2-2 1m-56 4-1 1 1-1m2-6-3-3-1 1-2 2v2l3 2c1-1 3-2 3-4m5-1v2l-2 6c-1 2-3 2-4 2h-4l-3-2-1-1c-1-3-3-7-1-10 1-2 2-3 5-4l6 1 1 1c2 1 3 3 3 5"/><path fill="#FEFEFE" d="m154 166-5-1a6 6 0 0 0-1 0c-3 0-4-1-5-4l-2-2c-3-1-3-1-1-3l4-5 3-1 3-2 1 1v1c-2 5-2 9 1 12l2 2 1 1-1 1m22-12-3 1v5l-4 1h-2l1-1v-6c0-2 0-4-2-5v-1h3l6 3 1 1 1 2h-1"/><path fill="#FEFEFE" d="m177 157-1 1-1-1 1-2 1 2m70-30-2 1h-1l-1-1v-1l4-1 3 2 2 2 1 1h-4l-1-1-1-2"/><path fill="#2B2B2A" d="M236 155c0 1-1 2-3 2 0 0-2-1-2-3 0-1 1-2 3-2 1 0 2 1 2 3m-1 4 1 1v1h-1l-1-1 1-1m-73-4c0 2-2 3-3 4l-3-2v-2l2-2 1-1 3 3m-2 6-1 1 1-1"/></g></g><path d="M225 252h1-1"/><path fill="none" stroke="#000" stroke-linecap="round" stroke-linejoin="round" stroke-width=".2" d="M224 270h0"/><path fill="none" stroke="#000" stroke-linecap="round" stroke-linejoin="round" stroke-width="1.2" d="M189 254h0m-37-7h0m-10-9h0m5 11h0m0 0h0m5 11h0m9 8h0m3-12h0m3 9h0m-2-22v0m20 0h0m-6 9h0m0 12h0m-3 4h0m0 9h0m14 5h0m1 10h0m-19-10h0m-13-6h-1m-4-8-1-1m6-13h0m45 3h0m-1-13h0m2 0v1m14-1h0m0 0h0m-5 14h0m0 0h0m-2 11h0m-3 6h0m-2 7h0m-8-16h0m33-3h0m5-17h0m10-22h0m10-18h0m4 8h0m-13 29h0m-9 15h0m-14-1h0m12 4h0m-8 11h0m-4 7h0m-9-6h0m12 0h0m-16-11h0m18-13h0m-24-2h0"/><path fill="none" stroke="#000" stroke-linecap="round" stroke-linejoin="round" stroke-width="2.2" d="M176 259h0m-12-9h0m35 5h0m5 30h0m-58-32h0m-5-13h0m11-3h0m82 17h0m16-11h0m7-16h0m-7-10h0m-8 2h0m0 24h0m0 15h0m-35 14h0m-11-16h0m-23-10h0m-24-17h0m-13-9h0m-5 2v1m6 9h0m9-9h0m14 48h0m-2-17h0m-1 13h0m-11-5h0m56 13h0m-6-24h0m-18-5h0m45 1h1m0 24h0m-10 12h0m-25-2h0m-13 0h-1m11 8h0m13-1 1-1m-6-24h0m-8 3h0"/><path fill="none" stroke="#000" stroke-linecap="round" stroke-linejoin="round" stroke-width="1.2" d="M142 219h0m-2 8h0m0-11h0m-12 8h1m19 13h0m34 9h0m-2-6h0m13 0h0m16 0h0m23-2h0m-2-6h0m-5 1h0m14 3h0m7-14h0m15 0h0m-10 11h0m-16 22h0m-16 9h0m-27 1h0m-32-5h0m-13-13h0m7-7v0m14-3h0m7 0h0m21 35h0m20-12h0m-29-1h0m34-4h0m0 0h0m0 0h0m-17 5h0m-10 6-1 1m-1 0c-3-1-5-2-6-4"/><path fill="none" stroke="#000" stroke-linecap="round" stroke-linejoin="round" stroke-width="2.8" d="M166 257h1m19 11v0m44 4h0m1-35h0m5 19h0m14-23h0m-35 8h0m-9 4h0m-45 8h0m22 7h0m0-16h0m31 8h0m1 24h0m-13-17v0m17-10h0m-3 23h0m-26 1h0m-28-16h0m-19-10h0m-7-9h0m0 9h0"/></svg>